<?xml version="1.0" standalone="no"?>
<!DOCTYPE svg PUBLIC "-//W3C//DTD SVG 20010904//EN"
 "http://www.w3.org/TR/2001/REC-SVG-20010904/DTD/svg10.dtd">
<svg version="1.0" xmlns="http://www.w3.org/2000/svg"
 width="400.000000pt" height="400.000000pt" viewBox="0 0 400.000000 400.000000"
 preserveAspectRatio="xMidYMid meet">
<metadata>
Created by potrace 1.11, written by Peter Selinger 2001-2013
</metadata>
<g transform="translate(0.000000,400.000000) scale(0.100000,-0.100000)"
fill="#000000" stroke="none">
<path d="M2580 2288 c0 -1506 -1 -1577 -19 -1665 -11 -51 -32 -115 -47 -144
-35 -64 -101 -122 -162 -144 -69 -25 -227 -30 -351 -11 -58 9 -108 16 -113 16
-10 0 -11 -170 0 -170 4 0 52 -7 107 -15 210 -31 388 -12 506 51 58 32 138
114 168 172 33 64 69 201 80 305 7 64 11 610 11 1637 l0 1540 -90 0 -90 0 0
-1572z"/>
<path d="M1240 2785 l0 -145 140 0 140 0 0 145 0 145 -140 0 -140 0 0 -145z"/>
<path d="M1240 1055 l0 -145 140 0 140 0 0 145 0 145 -140 0 -140 0 0 -145z"/>
</g>
</svg>
