<svg xmlns="http://www.w3.org/2000/svg" viewBox="0 0 324 82.75"><path d="M12.05 32.91h3.26v3.41h-3.26zm0 20.06h3.26v3.41h-3.26z" fill="#70bf45"/><path d="M19.54 63a16.94 16.94 0 0 0 3.46.43 4.09 4.09 0 0 0 3.62-1.56q1.08-1.56 1.08-5.21V22.21h2v34.51q0 4.61-1.54 6.6t-5 2a21.26 21.26 0 0 1-3.6-.38zm42.14-30.61v24h-2v-4.8a7.93 7.93 0 0 1-3.24 3.82 9.88 9.88 0 0 1-5.21 1.32 10.44 10.44 0 0 1-5.64-1.51 9.91 9.91 0 0 1-3.74-4.32 15.24 15.24 0 0 1-1.32-6.55 15.17 15.17 0 0 1 1.34-6.58 10.36 10.36 0 0 1 3.77-4.39 10.95 10.95 0 0 1 10.8-.26 7.81 7.81 0 0 1 3.24 3.79v-4.52zM57.46 52q2.21-2.76 2.21-7.75t-2.21-7.75a7.6 7.6 0 0 0-6.24-2.71 7.64 7.64 0 0 0-6.29 2.78q-2.26 2.78-2.26 7.78T45 52a7.77 7.77 0 0 0 6.31 2.74A7.48 7.48 0 0 0 57.46 52zm14.83 1.46l.91-1.68a12.1 12.1 0 0 0 3.8 2.28 13.31 13.31 0 0 0 4.39.65 8.79 8.79 0 0 0 4.9-1.13 3.71 3.71 0 0 0 1.68-3.29 3.6 3.6 0 0 0-1.1-2.76 8.17 8.17 0 0 0-3.55-1.66l-4.08-1a8.67 8.67 0 0 1-4.42-2.35 5.49 5.49 0 0 1-1.68-3.94 6 6 0 0 1 2.33-4.94 9.71 9.71 0 0 1 6.26-1.87 12.69 12.69 0 0 1 4.68.84 8.42 8.42 0 0 1 3.4 2.39l-1 1.73a12.17 12.17 0 0 0-3.36-2.23 9.48 9.48 0 0 0-3.79-.74A7.88 7.88 0 0 0 77 35a3.91 3.91 0 0 0-1.66 3.36 4.05 4.05 0 0 0 1.06 2.93 6.5 6.5 0 0 0 3.26 1.63l4.13 1a9.59 9.59 0 0 1 4.75 2.3 5.34 5.34 0 0 1 1.58 3.94 5.68 5.68 0 0 1-2.42 4.75 10.56 10.56 0 0 1-6.5 1.82q-5.65-.01-8.91-3.27zm32.11 1.73a10 10 0 0 1-3.77-4.37 15.41 15.41 0 0 1-1.32-6.58 15.25 15.25 0 0 1 1.32-6.55 10 10 0 0 1 3.77-4.34 10.34 10.34 0 0 1 5.6-1.54 10.23 10.23 0 0 1 5.59 1.54 10.07 10.07 0 0 1 3.74 4.34 15.25 15.25 0 0 1 1.32 6.55 15.41 15.41 0 0 1-1.32 6.58 10 10 0 0 1-3.74 4.37 10.22 10.22 0 0 1-5.59 1.53 10.34 10.34 0 0 1-5.6-1.53zM116.28 52q2.23-2.73 2.23-7.78t-2.26-7.68a7.59 7.59 0 0 0-6.25-2.76 7.69 7.69 0 0 0-6.26 2.76q-2.28 2.76-2.28 7.7t2.21 7.8a8.65 8.65 0 0 0 12.6 0zm33.86-11.07v15.46h-2V41.12q0-3.84-1.56-5.62t-5-1.78a8.36 8.36 0 0 0-6.22 2.35 8.61 8.61 0 0 0-2.33 6.34v14h-2V39a50.66 50.66 0 0 0-.38-6.62h1.92l.34 4.56a7.57 7.57 0 0 1 3.26-3.82 10.07 10.07 0 0 1 5.18-1.32q8.79.01 8.79 9.13zm17.98 14.74a14.78 14.78 0 0 1-5.4-3.5l1-1.68a16.06 16.06 0 0 0 5.14 3.34 17.76 17.76 0 0 0 6.29 1q4.56 0 7.08-1.94a6.49 6.49 0 0 0 2.52-5.45 4.49 4.49 0 0 0-1.25-3.29 7.94 7.94 0 0 0-3.1-1.92 49.5 49.5 0 0 0-4.92-1.37 61.68 61.68 0 0 1-6.36-1.78 10.35 10.35 0 0 1-4.06-2.69 7.09 7.09 0 0 1-1.78-5.09 8.68 8.68 0 0 1 1.44-5 9.36 9.36 0 0 1 4.1-3.31 15.4 15.4 0 0 1 6.26-1.18 15.08 15.08 0 0 1 11.47 4.61l-1 1.68a17 17 0 0 0-4.94-3.29 14.32 14.32 0 0 0-5.52-1 11.46 11.46 0 0 0-7.18 2 6.67 6.67 0 0 0-2.57 5.59 5.1 5.1 0 0 0 2.23 4.56 20.29 20.29 0 0 0 6.26 2.5L176 39a50.26 50.26 0 0 1 5.66 1.61 9.06 9.06 0 0 1 3.69 2.39 6.49 6.49 0 0 1 1.51 4.51 8.2 8.2 0 0 1-1.44 4.78 9.49 9.49 0 0 1-4.1 3.26 15.15 15.15 0 0 1-6.17 1.18 20.34 20.34 0 0 1-7.03-1.06zm44.98-22.3a10.37 10.37 0 0 1 3.77 4.39 15.19 15.19 0 0 1 1.34 6.58 15.09 15.09 0 0 1-1.32 6.53 10 10 0 0 1-3.77 4.32 10.34 10.34 0 0 1-5.62 1.54 9.67 9.67 0 0 1-5.28-1.37 8.15 8.15 0 0 1-3.22-4v15.39h-2V39a50.66 50.66 0 0 0-.38-6.62h1.92l.38 4.9a8.09 8.09 0 0 1 3.22-4.06 9.66 9.66 0 0 1 5.33-1.42 10.11 10.11 0 0 1 5.63 1.57zm.67 18.63q2.23-2.72 2.23-7.66t-2.23-7.78a7.52 7.52 0 0 0-6.22-2.78 7.63 7.63 0 0 0-6.31 2.71q-2.18 2.71-2.18 7.75t2.18 7.76a7.55 7.55 0 0 0 6.26 2.74 7.63 7.63 0 0 0 6.27-2.74zm14.32-29.21h3.12v3.07h-3.12zm.53 33.6v-24h2v24zm14.07 0V21.06h2v35.33zm14.06 0V21.06h2v35.33zm14.69-12.53v.43q0 5 2.38 7.75a8.55 8.55 0 0 0 6.79 2.71 11.83 11.83 0 0 0 4.22-.74 13.32 13.32 0 0 0 3.89-2.38l1 1.73a11 11 0 0 1-4 2.45 14.14 14.14 0 0 1-5 .91 11 11 0 0 1-8.42-3.31q-3.1-3.31-3.1-9.12a14.61 14.61 0 0 1 1.39-6.53 10.45 10.45 0 0 1 3.91-4.39 10.76 10.76 0 0 1 5.78-1.56 9.05 9.05 0 0 1 7.22 3q2.61 3 2.62 8.45v.58zm3-8a10.18 10.18 0 0 0-2.86 6.07h16.51a9.65 9.65 0 0 0-2.3-6.12 7.23 7.23 0 0 0-5.52-2.14 8.09 8.09 0 0 0-5.83 2.15zM311.95 32l-.14 1.82a13.27 13.27 0 0 0-1.92-.1 6.83 6.83 0 0 0-6.77 4.28 10.43 10.43 0 0 0-.77 4v14.4h-2V39a50.67 50.67 0 0 0-.38-6.62h1.92l.34 4.51a7.54 7.54 0 0 1 3-3.79 8.54 8.54 0 0 1 4.68-1.3 10.43 10.43 0 0 1 2.04.2z" fill="#636466"/></svg>